<svg id="visual" viewBox="0 0 900 600" width="900" height="600" xmlns="http://www.w3.org/2000/svg" xmlns:xlink="http://www.w3.org/1999/xlink" version="1.1"><rect x="0" y="0" width="900" height="600" fill="#002233"></rect><path d="M0 133L18.8 120.8C37.7 108.7 75.3 84.3 112.8 83.3C150.3 82.3 187.7 104.7 225.2 106.2C262.7 107.7 300.3 88.3 337.8 80.3C375.3 72.3 412.7 75.7 450.2 86.3C487.7 97 525.3 115 562.8 131.2C600.3 147.3 637.7 161.7 675.2 168.8C712.7 176 750.3 176 787.8 171.7C825.3 167.3 862.7 158.7 881.3 154.3L900 150L900 0L881.3 0C862.7 0 825.3 0 787.8 0C750.3 0 712.7 0 675.2 0C637.7 0 600.3 0 562.8 0C525.3 0 487.7 0 450.2 0C412.7 0 375.3 0 337.8 0C300.3 0 262.7 0 225.2 0C187.7 0 150.3 0 112.8 0C75.3 0 37.7 0 18.8 0L0 0Z" fill="#0066FF" stroke-linecap="round" stroke-linejoin="miter"></path></svg>