<!--?xml version="1.0" standalone="no"?-->
              <svg id="sw-js-blob-svg" viewBox="0 0 100 100" xmlns="http://www.w3.org/2000/svg" version="1.1">
                    <defs>
                        <linearGradient id="sw-gradient" x1="0" x2="1" y1="1" y2="0">
                            <stop id="stop1" stop-color="rgba(115.172, 235.474, 251.656, 1)" offset="0%"></stop>
                            <stop id="stop2" stop-color="rgba(0, 102, 255, 1)" offset="100%"></stop>
                        </linearGradient>
                    </defs>
                <path fill="url(#sw-gradient)" d="M24.4,-33.4C32,-28,38.8,-21.4,40.9,-13.6C43,-5.8,40.5,3.3,37.3,11.8C34.1,20.4,30.3,28.4,24,31.9C17.6,35.5,8.8,34.5,0.9,33.2C-6.9,31.9,-13.9,30.3,-20.5,26.9C-27.1,23.4,-33.4,18.1,-36.1,11.3C-38.9,4.5,-38.1,-3.8,-35.9,-12C-33.6,-20.1,-29.9,-28.1,-23.7,-33.9C-17.5,-39.7,-8.7,-43.3,-0.2,-43.1C8.4,-42.8,16.8,-38.7,24.4,-33.4Z" width="100%" height="100%" transform="translate(50 50)" stroke-width="0" style="transition: 0.3s;"></path>
              </svg>