<svg width="128" height="128" viewBox="0 0 128 128" fill="none" xmlns="http://www.w3.org/2000/svg">
<path d="M37.3333 44.1335L27.7333 64.5335L32 66.8002C33.4666 62.1335 39.0666 59.4668 43.4666 65.6002L45.5999 64.1335C49.4666 63.4668 52.7999 65.4668 52.6666 70.2668C56.7999 69.6002 58.9333 72.2668 58.9333 75.2002C62.1333 73.8668 67.3333 75.4668 66.1333 82.1335L64.3999 85.0668L74.3999 90.2668C77.0666 91.6002 79.9999 87.0668 77.7333 85.4668L69.0666 79.8668C68.1333 79.3335 69.1999 77.3335 70.3999 78.0002L80.9333 83.7335C83.3333 85.0668 86.6666 80.2668 83.9999 78.6668L67.5999 68.6668C66.3999 67.8668 67.7333 65.7335 69.0666 66.5335L88.2666 77.6002C91.3333 78.9335 93.8666 73.8668 91.3333 72.4002L76.2666 63.6002C75.1999 62.8002 76.1333 61.2002 77.5999 61.8668L96.5333 71.8668C100.533 73.7335 102.8 68.4002 99.7333 66.8002L61.1999 46.6668L56.6666 53.8668C54.3999 57.0668 51.3333 56.6668 49.0666 55.2002C46.5333 53.3335 45.8666 51.0668 47.1999 48.8002L50.9333 42.5335L37.3333 44.1335Z" fill="#0066FF"/>
<path d="M30.8 38.6667L19.2 63.0667L24.5333 65.6L35.8666 41.2L30.8 38.6667Z" fill="#0066FF"/>
<path d="M94.5333 38L89.3333 41.2L103.867 64L108.933 60.8L94.5333 38Z" fill="#0066FF"/>
<path d="M88.6666 44.2667L101.733 65.2L61.5999 44.1333C61.0666 43.7333 60.2666 43.8667 59.9999 44.2667L54.9333 52.2667C53.3956 53.9345 51.4666 53.7315 50.3999 53.2C49.3333 52.6685 48.8883 51.1651 49.4666 49.6L55.0666 40.8L62.9333 38C64.2666 37.4668 65.0666 37.4668 66.2666 38L77.3333 42.2667L88.6666 44.2667Z" fill="#0066FF"/>
<path d="M37.9092 74.2794L40.9564 69.3558C41.8166 67.8752 41.3088 65.9775 39.8243 65.1243L39.5414 64.9618C37.9321 64.0369 35.8787 64.5668 34.918 66.155L32.1391 70.7487C31.1762 72.3404 31.6795 74.4109 33.2655 75.3831C34.8533 76.3564 36.9291 75.863 37.9092 74.2794Z" fill="#0066FF"/>
<path d="M44.8979 79.5108L49.7099 72.3555L50.024 71.8663C51.056 70.2589 50.5654 68.1172 48.9366 67.1193C47.3708 66.16 45.3265 66.6137 44.3136 68.1454L39.2767 75.762C38.2493 77.3156 38.6732 79.4077 40.2243 80.4389C41.7722 81.4679 43.8606 81.0532 44.8979 79.5108Z" fill="#0066FF"/>
<path d="M51.7425 84.2346L55.9507 77.54L56.2499 77.0412C57.1297 75.5743 56.631 73.6707 55.1449 72.8236C53.7183 72.0104 51.904 72.4729 51.0407 73.8697L46.6116 81.0365C45.7352 82.4546 46.1722 84.3144 47.5883 85.1938C49.0011 86.0713 50.8574 85.6427 51.7425 84.2346Z" fill="#0066FF"/>
<path d="M59.0038 88.9323L63.3018 82.3334L63.5925 81.8658C64.5047 80.3982 64.0322 78.4676 62.5454 77.5871C61.117 76.7412 59.2751 77.1788 58.3798 78.5768L53.871 85.6174C52.9626 87.0359 53.3738 88.9221 54.7902 89.8339C56.2036 90.7437 58.0864 90.3408 59.0038 88.9323Z" fill="#0066FF"/>
<rect x="2.5" y="2.5" width="123" height="123" rx="61.5" stroke="#0066FF" stroke-width="5"/>
</svg>
