<svg height="16" viewBox="0 0 16 16" width="16" xmlns="http://www.w3.org/2000/svg"><g fill="#fff"><path d="m14 10.58c.024-.048.038-.105.038-.165s-.014-.117-.039-.167l-.479-.698c-.009-.013-.014-.028-.014-.045s.005-.032.014-.045l.48-.7c.024-.048.038-.105.038-.165s-.014-.117-.039-.167c-.04-.11-.127-.196-.236-.237l-.823-.301c-.031-.011-.054-.037-.06-.069v-.841c-.007-.125-.072-.233-.169-.299-.066-.045-.145-.071-.231-.071-.004 0-.007 0-.011 0h-.159l-.85.22c-.01.004-.022.007-.035.007s-.025-.003-.036-.007l-.549-.65c-.079-.085-.191-.137-.315-.137s-.236.053-.315.137l-.55.65c-.01.004-.022.007-.035.007s-.025-.003-.036-.007h.001l-.9-.23h-.1c-.002 0-.005 0-.008 0-.087 0-.167.026-.234.071-.096.066-.161.174-.168.298v.841c-.006.033-.029.059-.059.07l-.821.3c-.134.023-.245.11-.299.228-.025.051-.039.107-.039.167s.014.117.039.167l.479.698c.009.013.014.028.014.045s-.005.032-.014.045l-.48.7c-.024.048-.038.105-.038.165s.014.117.039.167c.04.11.127.196.236.237l.823.301c.031.011.054.037.06.069v.841c.007.125.072.233.169.299.067.045.147.071.234.071h.008.16l.31-.07v3.69l1.53-2 1.47 2v-3.69l.31.08h.11.008c.087 0 .167-.026.234-.071.096-.066.161-.174.168-.298v-.841c.006-.033.029-.059.059-.07l.821-.3c.13-.026.236-.112.289-.227z"/><path d="m0 1v12h8l-.11-.05c-.282-.195-.469-.508-.49-.867v-.083h-6.4v-10h14v10h-1.43v.08c-.021.361-.208.675-.486.868l-.084.052h3v-12h-16z"/><path d="m7.43 6.91c.007-.377.198-.708.486-.908.016-.005.03-.006.044-.006s.028.001.041.004h-5.001v1h4.43z"/><path d="m6.42 8h-3.42v1h3.36c-.074-.136-.117-.298-.117-.47 0-.13.025-.253.07-.367.014-.063.054-.122.107-.163z"/><path d="m3 4h10v1h-10z"/></g></svg>