<?xml version="1.0" encoding="UTF-8"?>
<svg xmlns="http://www.w3.org/2000/svg" id="Layer_1" data-name="Layer 1" viewBox="0 0 24 24">
  <path d="m16.034,18.101c1.84.992,3.285,2.63,3.913,4.652.094.303.039.634-.15.89s-.487.407-.805.407H4.993c-.318,0-.617-.151-.805-.407s-.244-.586-.15-.89c.63-2.026,2.079-3.666,3.924-4.658.473-.254,1.061-.148,1.405.265l1.949,2.338c.356.427,1.012.427,1.368,0l1.944-2.333c.344-.413.933-.519,1.406-.264Zm4.622-15.451L14.192.369c-1.388-.491-2.916-.492-4.303-.006L3.346,2.653c-.818.286-1.346,1.03-1.346,1.896,0,.867.529,1.611,1.347,1.896l6.507,2.27c.689.24,1.414.361,2.138.361s1.448-.121,2.137-.361l5.864-2.045v4.379c0,.552.448,1,1,1s1-.448,1-1c0,0,.004-6.493.004-6.502.001-.865-.525-1.61-1.34-1.898Zm-2.664,6.836l-3.205,1.118c-1.798.627-3.793.627-5.592,0l-3.203-1.118v.563c0,3.309,2.691,6,6,6s6-2.691,6-6v-.564Z"/>
</svg>
