<?xml version="1.0" encoding="UTF-8"?>
<svg xmlns="http://www.w3.org/2000/svg" id="Layer_1" data-name="Layer 1" viewBox="0 0 24 24">
  <path d="m21,12c0-.537-.051-1.082-.153-1.625l3.052-1.755-2.99-5.202-3.051,1.754c-.841-.721-1.81-1.28-2.857-1.649V0h-6v3.522c-1.047.37-2.016.929-2.857,1.649l-3.05-1.754L.102,8.62l3.052,1.755c-.102.544-.153,1.088-.153,1.625s.051,1.082.153,1.625L.102,15.38l2.991,5.202,3.05-1.754c.841.721,1.81,1.28,2.857,1.649v3.522h6v-3.522c1.047-.37,2.016-.929,2.857-1.649l3.051,1.754,2.99-5.202-3.052-1.755c.102-.544.153-1.088.153-1.625Zm-9.505-4.949c.169-.017.332-.051.505-.051s.336.034.504.051c1.139.233,1.995,1.241,1.995,2.449,0,1.381-1.119,2.5-2.5,2.5s-2.5-1.119-2.5-2.5c0-1.208.856-2.215,1.995-2.449Zm2.505,9.525s-.5.424-2,.424-2-.424-2-.424c-.8-.351-1.481-.912-1.997-1.604.015-1.09.904-1.972,1.997-1.972h4c1.094,0,1.982.882,1.997,1.972-.516.692-1.197,1.253-1.997,1.604Z"/>
</svg>
