<svg id="visual" viewBox="0 0 1920 100" width="1920" height="100" xmlns="http://www.w3.org/2000/svg" xmlns:xlink="http://www.w3.org/1999/xlink" version="1.1"><path d="M0 68L22.8 66C45.7 64 91.3 60 137 54.5C182.7 49 228.3 42 274 39.2C319.7 36.3 365.3 37.7 411.2 44.3C457 51 503 63 548.8 66.7C594.7 70.3 640.3 65.7 686 59.2C731.7 52.7 777.3 44.3 823 42.7C868.7 41 914.3 46 960 51C1005.7 56 1051.3 61 1097 65.2C1142.7 69.3 1188.3 72.7 1234 69.3C1279.7 66 1325.3 56 1371.2 50.5C1417 45 1463 44 1508.8 43.3C1554.7 42.7 1600.3 42.3 1646 43.8C1691.7 45.3 1737.3 48.7 1783 45C1828.7 41.3 1874.3 30.7 1897.2 25.3L1920 20L1920 0L1897.2 0C1874.3 0 1828.7 0 1783 0C1737.3 0 1691.7 0 1646 0C1600.3 0 1554.7 0 1508.8 0C1463 0 1417 0 1371.2 0C1325.3 0 1279.7 0 1234 0C1188.3 0 1142.7 0 1097 0C1051.3 0 1005.7 0 960 0C914.3 0 868.7 0 823 0C777.3 0 731.7 0 686 0C640.3 0 594.7 0 548.8 0C503 0 457 0 411.2 0C365.3 0 319.7 0 274 0C228.3 0 182.7 0 137 0C91.3 0 45.7 0 22.8 0L0 0Z" fill="#141b24" stroke-linecap="round" stroke-linejoin="miter"></path></svg>