<svg id="visual" viewBox="0 0 900 600" width="900" height="600" opacity="1" xmlns="http://www.w3.org/2000/svg" xmlns:xlink="http://www.w3.org/1999/xlink" version="1.1"><path d="M0 487L21.5 482.5C43 478 86 469 128.8 466.5C171.7 464 214.3 468 257.2 471C300 474 343 476 385.8 481.5C428.7 487 471.3 496 514.2 500.3C557 504.7 600 504.3 642.8 497.8C685.7 491.3 728.3 478.7 771.2 474.3C814 470 857 474 878.5 476L900 478L900 601L878.5 601C857 601 814 601 771.2 601C728.3 601 685.7 601 642.8 601C600 601 557 601 514.2 601C471.3 601 428.7 601 385.8 601C343 601 300 601 257.2 601C214.3 601 171.7 601 128.8 601C86 601 43 601 21.5 601L0 601Z" fill="#86b6ff"></path><path d="M0 504L21.5 502.7C43 501.3 86 498.7 128.8 501.7C171.7 504.7 214.3 513.3 257.2 512.8C300 512.3 343 502.7 385.8 498.3C428.7 494 471.3 495 514.2 494.2C557 493.3 600 490.7 642.8 495C685.7 499.3 728.3 510.7 771.2 510C814 509.3 857 496.7 878.5 490.3L900 484L900 601L878.5 601C857 601 814 601 771.2 601C728.3 601 685.7 601 642.8 601C600 601 557 601 514.2 601C471.3 601 428.7 601 385.8 601C343 601 300 601 257.2 601C214.3 601 171.7 601 128.8 601C86 601 43 601 21.5 601L0 601Z" fill="#69a3ff"></path><path d="M0 507L21.5 512.2C43 517.3 86 527.7 128.8 528C171.7 528.3 214.3 518.7 257.2 519.2C300 519.7 343 530.3 385.8 531.2C428.7 532 471.3 523 514.2 518.7C557 514.3 600 514.7 642.8 515C685.7 515.3 728.3 515.7 771.2 518.7C814 521.7 857 527.3 878.5 530.2L900 533L900 601L878.5 601C857 601 814 601 771.2 601C728.3 601 685.7 601 642.8 601C600 601 557 601 514.2 601C471.3 601 428.7 601 385.8 601C343 601 300 601 257.2 601C214.3 601 171.7 601 128.8 601C86 601 43 601 21.5 601L0 601Z" fill="#4b90ff"></path><path d="M0 565L21.5 559.3C43 553.7 86 542.3 128.8 536.5C171.7 530.7 214.3 530.3 257.2 534.5C300 538.7 343 547.3 385.8 549.8C428.7 552.3 471.3 548.7 514.2 546.5C557 544.3 600 543.7 642.8 546.3C685.7 549 728.3 555 771.2 558.5C814 562 857 563 878.5 563.5L900 564L900 601L878.5 601C857 601 814 601 771.2 601C728.3 601 685.7 601 642.8 601C600 601 557 601 514.2 601C471.3 601 428.7 601 385.8 601C343 601 300 601 257.2 601C214.3 601 171.7 601 128.8 601C86 601 43 601 21.5 601L0 601Z" fill="#2b7cff"></path><path d="M0 584L21.5 581.7C43 579.3 86 574.7 128.8 570.5C171.7 566.3 214.3 562.7 257.2 561.5C300 560.3 343 561.7 385.8 565.3C428.7 569 471.3 575 514.2 577.3C557 579.7 600 578.3 642.8 576C685.7 573.7 728.3 570.3 771.2 571.2C814 572 857 577 878.5 579.5L900 582L900 601L878.5 601C857 601 814 601 771.2 601C728.3 601 685.7 601 642.8 601C600 601 557 601 514.2 601C471.3 601 428.7 601 385.8 601C343 601 300 601 257.2 601C214.3 601 171.7 601 128.8 601C86 601 43 601 21.5 601L0 601Z" fill="#0066ff"></path></svg>