<svg width="134" height="134" viewBox="0 0 134 134" fill="transparent" xmlns="http://www.w3.org/2000/svg">
<path d="M57.8571 125.417V122.917C57.0822 122.917 56.351 123.277 55.8776 123.89C55.4043 124.504 55.2423 125.303 55.4391 126.052L57.8571 125.417ZM74.5429 125.417L76.9484 126.098C77.1617 125.345 77.0094 124.534 76.5369 123.909C76.0643 123.285 75.3262 122.917 74.5429 122.917V125.417ZM66.3144 31.9097L66.3144 29.4097L66.3144 29.4097L66.3144 31.9097ZM35.2287 58.2275L32.7287 58.2275L35.2287 58.2275ZM51.9144 95.1122H54.4144C54.4144 93.7315 53.2951 92.6122 51.9144 92.6122V95.1122ZM51.9144 98.701H49.4144C49.4144 100.082 50.5337 101.201 51.9144 101.201V98.701ZM80.7144 98.701V101.201C82.0951 101.201 83.2144 100.082 83.2144 98.701H80.7144ZM80.7144 95.1122L78.3261 94.3732C78.2521 94.6126 78.2144 94.8617 78.2144 95.1122H80.7144ZM83.6858 87.9346L81.5355 86.6595L81.5355 86.6595L83.6858 87.9346ZM43.4747 59.2965C43.4044 60.6754 44.4653 61.8502 45.8442 61.9204C47.2231 61.9907 48.3979 60.9298 48.4682 59.5509L43.4747 59.2965ZM67.3291 43.1802C68.7087 43.1247 69.7821 41.9613 69.7265 40.5817C69.671 39.2021 68.5076 38.1287 67.128 38.1843L67.3291 43.1802ZM52.094 107.78C50.7218 107.933 49.7337 109.17 49.8869 110.542C50.0401 111.914 51.2766 112.903 52.6488 112.749L52.094 107.78ZM81.2203 109.559C82.5924 109.406 83.5806 108.17 83.4274 106.797C83.2742 105.425 82.0376 104.437 80.6655 104.59L81.2203 109.559ZM52.1091 116.95C50.736 117.095 49.7403 118.325 49.8852 119.698C50.0301 121.072 51.2607 122.067 52.6338 121.922L52.1091 116.95ZM66.5429 117.941L66.8052 120.427L66.8249 120.425L66.8445 120.423L66.5429 117.941ZM80.7874 118.728C82.158 118.561 83.134 117.315 82.9674 115.944C82.8009 114.574 81.5547 113.598 80.1841 113.764L80.7874 118.728ZM20.0995 96.4182C19.059 97.3258 18.9513 98.905 19.8589 99.9455C20.7665 100.986 22.3457 101.094 23.3862 100.186L20.0995 96.4182ZM35.9576 89.2204C36.9981 88.3128 37.1059 86.7336 36.1983 85.6931C35.2907 84.6526 33.7114 84.5449 32.6709 85.4525L35.9576 89.2204ZM3 56.5249C1.61929 56.5249 0.5 57.6442 0.5 59.0249C0.5 60.4056 1.61929 61.5249 3 61.5249V56.5249ZM21.5143 61.5249C22.895 61.5249 24.0143 60.4056 24.0143 59.0249C24.0143 57.6442 22.895 56.5249 21.5143 56.5249V61.5249ZM23.1576 17.8637C22.1171 16.9561 20.5379 17.0638 19.6303 18.1043C18.7227 19.1448 18.8304 20.724 19.8709 21.6316L23.1576 17.8637ZM33.5852 33.5943C34.6257 34.5019 36.205 34.3941 37.1126 33.3536C38.0202 32.3131 37.9124 30.7339 36.8719 29.8263L33.5852 33.5943ZM69.0429 3C69.0429 1.61929 67.9236 0.5 66.5429 0.5C65.1621 0.5 64.0429 1.61929 64.0429 3H69.0429ZM64.0429 19.947C64.0429 21.3278 65.1621 22.447 66.5429 22.447C67.9236 22.447 69.0429 21.3278 69.0429 19.947H64.0429ZM114.543 21.0708C115.604 20.1873 115.748 18.6109 114.864 17.5499C113.981 16.4888 112.404 16.3448 111.343 17.2283L114.543 21.0708ZM96.2575 29.7891C95.1964 30.6725 95.0525 32.2489 95.9359 33.3099C96.8194 34.371 98.3957 34.515 99.4568 33.6315L96.2575 29.7891ZM131 61.9237C132.381 61.9237 133.5 60.8044 133.5 59.4237C133.5 58.043 132.381 56.9237 131 56.9237V61.9237ZM110.886 56.9237C109.505 56.9237 108.386 58.043 108.386 59.4237C108.386 60.8044 109.505 61.9237 110.886 61.9237V56.9237ZM111.043 101.158C112.07 102.081 113.651 101.997 114.574 100.97C115.497 99.9432 115.412 98.3625 114.385 97.4396L111.043 101.158ZM99.2997 83.882C98.2727 82.9591 96.6921 83.0434 95.7691 84.0703C94.8462 85.0973 94.9306 86.6779 95.9575 87.6009L99.2997 83.882ZM57.8571 127.917H74.5429V122.917H57.8571V127.917ZM72.1374 124.737C71.6595 126.425 71.1306 127.189 70.5259 127.626C69.8847 128.09 68.7259 128.5 66.3143 128.5V133.5C69.1598 133.5 71.5707 133.042 73.4573 131.677C75.3803 130.285 76.3371 128.258 76.9484 126.098L72.1374 124.737ZM66.3143 128.5C63.8816 128.5 62.6254 128.109 61.908 127.621C61.2645 127.184 60.708 126.431 60.2752 124.783L55.4391 126.052C56.0425 128.351 57.086 130.39 59.0977 131.757C61.0356 133.074 63.4898 133.5 66.3143 133.5V128.5ZM66.3144 29.4097C46.954 29.4098 32.7287 42.6031 32.7287 58.2275L37.7287 58.2275C37.7287 45.9392 49.1033 34.4098 66.3144 34.4097L66.3144 29.4097ZM32.7287 58.2275C32.7287 65.9669 36.1008 72.1152 39.5164 77.0466C41.1437 79.3959 43.0661 81.849 44.3831 83.6847C45.8281 85.6989 46.8046 87.3052 47.2465 88.6932L52.0108 87.1761C51.31 84.9753 49.9151 82.8183 48.4458 80.7702C46.8485 78.5436 45.3138 76.6353 43.6267 74.1996C40.4138 69.5609 37.7287 64.4443 37.7287 58.2275L32.7287 58.2275ZM47.2465 88.6932C48.3894 92.282 48.9608 94.0764 49.2465 94.9736C49.3894 95.4222 49.4609 95.6466 49.4966 95.7588C49.5145 95.8149 49.5234 95.843 49.5279 95.8571C49.5301 95.8641 49.5313 95.8678 49.5319 95.8697C49.5322 95.8706 49.5325 95.8714 49.5327 95.872C49.5327 95.8722 49.5329 95.8728 49.5332 95.8736C49.5333 95.8739 49.5336 95.8751 49.5341 95.8766C49.5343 95.877 49.535 95.8794 49.536 95.8824C49.5369 95.8853 49.5388 95.8911 49.5398 95.894C50.4489 97.1376 51.9144 97.6122 51.9144 95.1122C51.9144 92.6122 53.3799 93.0868 54.289 94.3304C54.29 94.3333 54.2919 94.3391 54.2928 94.342C54.2938 94.345 54.2945 94.3474 54.2947 94.3478C54.2952 94.3493 54.2955 94.3505 54.2956 94.3507C54.2957 94.3511 54.2959 94.3515 54.2959 94.3516C54.296 94.3518 54.296 94.3519 54.296 94.352C54.2961 94.3522 54.296 94.352 54.2958 94.3512C54.2953 94.3496 54.2942 94.3463 54.292 94.3393C54.2875 94.3254 54.2786 94.2974 54.2608 94.2413C54.2251 94.1292 54.1536 93.905 54.0108 93.4564C53.7251 92.5592 53.1536 90.7648 52.0108 87.1761L47.2465 88.6932ZM49.4144 95.1122V98.701H54.4144V95.1122H49.4144ZM51.9144 101.201H80.7144V96.201H51.9144V101.201ZM83.2144 98.701V95.1122H78.2144V98.701H83.2144ZM80.7144 95.1122C83.1027 95.8512 83.1026 95.8513 83.1026 95.8515C83.1026 95.8515 83.1025 95.8516 83.1025 95.8517C83.1025 95.8518 83.1025 95.8518 83.1025 95.8518C83.1025 95.8517 83.1026 95.8513 83.1028 95.8507C83.1032 95.8495 83.1039 95.8472 83.105 95.8439C83.1071 95.8372 83.1105 95.8263 83.1151 95.8114C83.1245 95.7817 83.139 95.736 83.1582 95.676C83.1968 95.5558 83.2544 95.3784 83.3288 95.1562C83.4778 94.7108 83.6924 94.0897 83.9535 93.3908C84.4897 91.9551 85.1699 90.3334 85.8362 89.2097L81.5355 86.6595C80.6321 88.1829 79.8266 90.15 79.2695 91.6413C78.9839 92.4059 78.75 93.0829 78.5871 93.5697C78.5055 93.8136 78.4414 94.0108 78.3972 94.1488C78.375 94.2178 78.3578 94.272 78.3459 94.3099C78.3399 94.3289 78.3353 94.3438 78.332 94.3544C78.3303 94.3597 78.329 94.3639 78.328 94.3671C78.3275 94.3687 78.3271 94.37 78.3268 94.371C78.3266 94.3715 78.3265 94.3719 78.3264 94.3723C78.3263 94.3725 78.3263 94.3727 78.3262 94.3728C78.3262 94.373 78.3261 94.3732 80.7144 95.1122ZM85.8362 89.2097C87.5029 86.399 89.1885 83.9307 90.8152 81.572C92.4262 79.2361 94.0115 76.9631 95.3794 74.6545C98.1684 69.9476 100.129 64.9737 100.129 58.2275H95.1287C95.1287 63.8426 93.546 67.9403 91.0779 72.1057C89.8173 74.2331 88.3454 76.3465 86.6992 78.7333C85.0688 81.0974 83.2973 83.6883 81.5355 86.6595L85.8362 89.2097ZM100.129 58.2275C100.129 44.2645 85.749 29.4097 66.3144 29.4097L66.3144 34.4097C83.4513 34.4097 95.1287 47.4678 95.1287 58.2275H100.129ZM48.4682 59.5509C48.6716 55.5584 50.0879 51.6362 52.9905 48.6575C55.8686 45.7039 60.4224 43.4583 67.3291 43.1802L67.128 38.1843C59.1776 38.5043 53.3314 41.1434 49.4095 45.168C45.5121 49.1676 43.7284 54.3169 43.4747 59.2965L48.4682 59.5509ZM52.6488 112.749L81.2203 109.559L80.6655 104.59L52.094 107.78L52.6488 112.749ZM52.6338 121.922L66.8052 120.427L66.2805 115.455L52.1091 116.95L52.6338 121.922ZM66.8445 120.423L80.7874 118.728L80.1841 113.764L66.2412 115.459L66.8445 120.423ZM23.3862 100.186L35.9576 89.2204L32.6709 85.4525L20.0995 96.4182L23.3862 100.186ZM3 61.5249H21.5143V56.5249H3V61.5249ZM19.8709 21.6316L33.5852 33.5943L36.8719 29.8263L23.1576 17.8637L19.8709 21.6316ZM64.0429 3V19.947H69.0429V3H64.0429ZM111.343 17.2283L96.2575 29.7891L99.4568 33.6315L114.543 21.0708L111.343 17.2283ZM131 56.9237H110.886V61.9237H131V56.9237ZM114.385 97.4396L99.2997 83.882L95.9575 87.6009L111.043 101.158L114.385 97.4396Z" fill="#0066FF"/>
</svg>
