<?xml version="1.0" encoding="UTF-8"?>
<svg id="Layer_1" data-name="Layer 1" xmlns="http://www.w3.org/2000/svg" viewBox="0 0 20 20">
  <defs>
    <style>
      .cls-1 {
        fill: none;
      }

      .cls-1, .cls-2 {
        stroke-width: 0px;
      }

      .cls-2 {
        fill: #1c75bc;
      }
    </style>
  </defs>
  <line class="cls-1" x1="17.66" y1="16.42" x2="16.5" y2="17.59"/>
  <path class="cls-2" d="M10,20c-.51,0-1.02-.04-1.51-.12l1.51.12Z"/>
  <path class="cls-2" d="M19.87,11.56c.09-.51.13-1.03.13-1.56,0-.49-.04-.97-.11-1.44h-4.09c-.15-.58-.38-1.13-.69-1.62h0s2.91-2.91,2.91-2.91c-.26-.35-.55-.69-.86-1l-.3-.31c-.3-.28-.63-.56-.98-.8l-2.93,2.93c-.45-.27-.94-.47-1.46-.59V.12c-.48-.08-.98-.12-1.49-.12s-1.02.04-1.51.12v4.14c-.62.15-1.19.4-1.71.74l-2.9-2.9c-.8.61-1.5,1.35-2.07,2.18l2.91,2.91c-.24.43-.42.89-.53,1.37H.11c-.07.47-.11.95-.11,1.44,0,.53.04,1.05.13,1.56h4.06c.12.52.32,1.02.58,1.47l-2.85,2.85c.3.42.64.82,1.01,1.19.34.34.71.66,1.1.95l2.84-2.84c.5.31,1.04.54,1.62.69v4.01c.49.08,1,.12,1.51.12s1.01-.04,1.49-.12v-4.02c.48-.12.95-.3,1.37-.53l2.86,2.86c.22-.14.43-.3.64-.47l.14-.13,1.16-1.17.06-.06c.06-.08.12-.16.18-.24l-2.85-2.85c.34-.52.59-1.09.75-1.71h4.07ZM10,14c-2.21,0-4-1.79-4-4s1.79-4,4-4,4,1.79,4,4-1.79,4-4,4Z"/>
  <path class="cls-1" d="M17.9,16.12l-.18.24"/>
</svg>