<svg width="128" height="128" viewBox="0 0 128 128" fill="none" xmlns="http://www.w3.org/2000/svg">
<path d="M105.516 78.6831L128 58.9423L105.516 39.7616V52.222C67.9348 58.1023 55.729 77.843 58.6198 122.645C58.6198 129.785 72.271 129.785 72.271 122.645C72.3596 117.77 72.5922 114.664 72.4316 109.624C71.2482 72.4854 92.9925 66.5997 105.516 64.8225V78.6831Z" fill="#0066FF"/>
<path d="M72.5922 57.6823L64.7227 64.4025L58.4592 58.9423V19.6008H43.202L65.3651 0L88.0101 19.6008H72.5922V57.6823Z" fill="#0066FF"/>
<path d="M22.6449 39.2015L0 58.9423L22.6449 78.6831V63.9825C37.5809 64.4025 49.6261 70.5628 55.4078 82.3232C56.4571 76.7323 57.7795 73.6058 61.6713 68.0427C50.7503 57.1222 40.6324 53.7621 22.6449 51.942V39.2015Z" fill="#0066FF"/>
</svg>
