<?xml version="1.0" encoding="UTF-8"?>
<svg xmlns="http://www.w3.org/2000/svg" id="Layer_1" data-name="Layer 1" viewBox="0 0 24 24">
  <path d="m2.5,2.5c0-1.381,1.119-2.5,2.5-2.5s2.5,1.119,2.5,2.5-1.119,2.5-2.5,2.5-2.5-1.119-2.5-2.5Zm11,1c-.828,0-1.5.672-1.5,1.5s.672,1.5,1.5,1.5,1.5-.672,1.5-1.5-.672-1.5-1.5-1.5Zm0,7c-.828,0-1.5.672-1.5,1.5s.672,1.5,1.5,1.5,1.5-.672,1.5-1.5-.672-1.5-1.5-1.5Zm0,7c-.828,0-1.5.672-1.5,1.5s.672,1.5,1.5,1.5,1.5-.672,1.5-1.5-.672-1.5-1.5-1.5Zm-3.5-7.5v3c0,1.474-.81,2.75-2,3.444v6.556c0,.552-.448,1-1,1s-1-.448-1-1v-6h-2v6c0,.552-.448,1-1,1s-1-.448-1-1v-6.556c-1.19-.694-2-1.97-2-3.444v-3c0-2.206,1.794-4,4-4h2c2.206,0,4,1.794,4,4Zm8-4h5c.553,0,1-.448,1-1s-.447-1-1-1h-5c-.553,0-1,.448-1,1s.447,1,1,1Zm5,5h-5c-.553,0-1,.448-1,1s.447,1,1,1h5c.553,0,1-.448,1-1s-.447-1-1-1Zm0,7h-5c-.553,0-1,.448-1,1s.447,1,1,1h5c.553,0,1-.448,1-1s-.447-1-1-1Z"/>
</svg>
