<svg id="visual" viewBox="0 0 1920 1080" width="1920" height="1080" opacity="0.1" filter="blur(10px)" xmlns="http://www.w3.org/2000/svg" xmlns:xlink="http://www.w3.org/1999/xlink" version="1.1"><path d="M1246 0L1474 0L1474 83L1388 83L1388 166L1280 166L1280 249L1536 249L1536 332L1336 332L1336 415L1569 415L1569 498L1398 498L1398 582L1395 582L1395 665L1369 665L1369 748L1561 748L1561 831L1214 831L1214 914L1447 914L1447 997L1174 997L1174 1080L0 1080L0 997L0 997L0 914L0 914L0 831L0 831L0 748L0 748L0 665L0 665L0 582L0 582L0 498L0 498L0 415L0 415L0 332L0 332L0 249L0 249L0 166L0 166L0 83L0 83L0 0L0 0Z" fill="#a2c7ff"></path><path d="M1074 0L959 0L959 83L1233 83L1233 166L1343 166L1343 249L1006 249L1006 332L967 332L967 415L1011 415L1011 498L1200 498L1200 582L1092 582L1092 665L1143 665L1143 748L982 748L982 831L1154 831L1154 914L1296 914L1296 997L1022 997L1022 1080L0 1080L0 997L0 997L0 914L0 914L0 831L0 831L0 748L0 748L0 665L0 665L0 582L0 582L0 498L0 498L0 415L0 415L0 332L0 332L0 249L0 249L0 166L0 166L0 83L0 83L0 0L0 0Z" fill="#7fb0ff"></path><path d="M1021 0L1059 0L1059 83L787 83L787 166L960 166L960 249L668 249L668 332L985 332L985 415L954 415L954 498L700 498L700 582L788 582L788 665L1058 665L1058 748L909 748L909 831L981 831L981 914L961 914L961 997L858 997L858 1080L0 1080L0 997L0 997L0 914L0 914L0 831L0 831L0 748L0 748L0 665L0 665L0 582L0 582L0 498L0 498L0 415L0 415L0 332L0 332L0 249L0 249L0 166L0 166L0 83L0 83L0 0L0 0Z" fill="#5b99ff"></path><path d="M420 0L470 0L470 83L647 83L647 166L766 166L766 249L747 249L747 332L507 332L507 415L741 415L741 498L771 498L771 582L679 582L679 665L669 665L669 748L751 748L751 831L468 831L468 914L759 914L759 997L477 997L477 1080L0 1080L0 997L0 997L0 914L0 914L0 831L0 831L0 748L0 748L0 665L0 665L0 582L0 582L0 498L0 498L0 415L0 415L0 332L0 332L0 249L0 249L0 166L0 166L0 83L0 83L0 0L0 0Z" fill="#3580ff"></path><path d="M253 0L448 0L448 83L372 83L372 166L198 166L198 249L281 249L281 332L165 332L165 415L187 415L187 498L365 498L365 582L386 582L386 665L282 665L282 748L407 748L407 831L300 831L300 914L247 914L247 997L307 997L307 1080L0 1080L0 997L0 997L0 914L0 914L0 831L0 831L0 748L0 748L0 665L0 665L0 582L0 582L0 498L0 498L0 415L0 415L0 332L0 332L0 249L0 249L0 166L0 166L0 83L0 83L0 0L0 0Z" fill="#0066ff"></path></svg>